<svg width="20" height="20" viewBox="0 0 20 20" fill="none" xmlns="http://www.w3.org/2000/svg">
<path d="M15.8331 7.02V5.83332C15.8331 2.61168 13.2215 0 9.99982 0C6.77814 0 4.1665 2.61168 4.1665 5.83332V7.02C2.64986 7.68191 1.66869 9.17856 1.6665 10.8333V15.8333C1.66924 18.1334 3.53311 19.9973 5.83314 20H14.1665C16.4665 19.9973 18.3304 18.1334 18.3331 15.8333V10.8333C18.331 9.17856 17.3498 7.68191 15.8331 7.02ZM10.8331 14.1667C10.8331 14.6269 10.4601 15 9.99982 15C9.53959 15 9.1665 14.6269 9.1665 14.1667V12.5C9.1665 12.0398 9.53959 11.6667 9.99982 11.6667C10.4601 11.6667 10.8331 12.0398 10.8331 12.5V14.1667V14.1667ZM14.1665 6.66668H5.83314V5.83336C5.83314 3.53219 7.69861 1.66668 9.99982 1.66668C12.301 1.66668 14.1665 3.53215 14.1665 5.83336V6.66668V6.66668Z" fill="#394251"/>
</svg>
